<svg width="28" height="28" viewBox="0 0 28 28" fill="none" xmlns="http://www.w3.org/2000/svg">
<path d="M15.3524 19.9409C15.1215 19.71 15.0107 19.4311 15.0199 19.104C15.0292 18.7769 15.1496 18.498 15.3812 18.2671L18.6422 15.0062H5.77151C5.44445 15.0062 5.17011 14.8953 4.94848 14.6737C4.72685 14.4521 4.61642 14.1781 4.61719 13.8518C4.61719 13.5248 4.72801 13.2504 4.94964 13.0288C5.17127 12.8072 5.44522 12.6968 5.77151 12.6975H18.6422L15.3524 9.40771C15.1215 9.17684 15.0061 8.9025 15.0061 8.58468C15.0061 8.26685 15.1215 7.99289 15.3524 7.7628C15.5832 7.53194 15.8576 7.4165 16.1754 7.4165C16.4932 7.4165 16.7672 7.53194 16.9973 7.7628L22.2783 13.0438C22.3937 13.1593 22.4757 13.2843 22.5242 13.419C22.5727 13.5536 22.5965 13.6979 22.5957 13.8518C22.5957 14.0058 22.5715 14.15 22.523 14.2847C22.4745 14.4194 22.393 14.5444 22.2783 14.6599L16.9684 19.9697C16.7568 20.1814 16.4925 20.2872 16.1754 20.2872C15.8584 20.2872 15.584 20.1718 15.3524 19.9409Z" fill="#4691F2"/>
</svg>
