<svg width="18" height="18" viewBox="0 0 18 18" fill="none" xmlns="http://www.w3.org/2000/svg">
<path d="M16.0696 8.32125L3.31957 2.32125C3.19118 2.26084 3.04829 2.23809 2.90749 2.25564C2.76668 2.27318 2.63375 2.33031 2.52412 2.42039C2.41448 2.51047 2.33265 2.6298 2.28813 2.76452C2.2436 2.89924 2.23821 3.04384 2.27257 3.1815L3.18157 6.81825L9.00007 9L3.18157 11.1818L2.27257 14.8185C2.23756 14.9563 2.2425 15.1012 2.28683 15.2362C2.33115 15.3713 2.41301 15.4909 2.52284 15.5812C2.63267 15.6714 2.76592 15.7285 2.90702 15.7458C3.04811 15.7631 3.1912 15.7398 3.31957 15.6788L16.0696 9.67875C16.1984 9.61819 16.3074 9.5222 16.3837 9.402C16.46 9.28181 16.5005 9.14238 16.5005 9C16.5005 8.85763 16.46 8.7182 16.3837 8.598C16.3074 8.47781 16.1984 8.38182 16.0696 8.32125Z" fill="#4691F2"/>
</svg>
