<svg width="28" height="28" viewBox="0 0 28 28" fill="none" xmlns="http://www.w3.org/2000/svg">
<path d="M12.3513 7.76285C12.5822 7.99371 12.693 8.27268 12.6838 8.59973C12.6745 8.92679 12.5541 9.20575 12.3225 9.43661L9.06151 12.6976H21.9322C22.2592 12.6976 22.5336 12.8084 22.7552 13.03C22.9769 13.2516 23.0873 13.5256 23.0865 13.8519C23.0865 14.1789 22.9757 14.4533 22.7541 14.6749C22.5324 14.8966 22.2585 15.007 21.9322 15.0062H9.06151L12.3513 18.296C12.5822 18.5269 12.6976 18.8012 12.6976 19.1191C12.6976 19.4369 12.5822 19.7108 12.3513 19.9409C12.1205 20.1718 11.8461 20.2872 11.5283 20.2872C11.2105 20.2872 10.9365 20.1718 10.7064 19.9409L5.4254 14.6599C5.30997 14.5445 5.22801 14.4194 5.17953 14.2848C5.13105 14.1501 5.10719 14.0058 5.10796 13.8519C5.10796 13.698 5.1322 13.5537 5.18069 13.419C5.22917 13.2844 5.31074 13.1593 5.4254 13.0439L10.7353 7.73399C10.9469 7.52237 11.2112 7.41655 11.5283 7.41655C11.8453 7.41655 12.1197 7.53199 12.3513 7.76285Z" fill="#4691F2"/>
</svg>
