<svg width="470" height="479" viewBox="0 0 470 479" fill="none" xmlns="http://www.w3.org/2000/svg">
<g opacity="0.2">
<path d="M63.2181 407.891C63.1826 407.926 63.1826 407.926 63.147 407.962C62.0454 409.205 60.9438 410.52 59.8778 411.799C59.3092 412.439 59.4158 413.399 60.0554 413.896C60.6951 414.465 61.6545 414.358 62.152 413.718C63.2181 412.439 64.3197 411.195 65.4213 409.952C65.9899 409.312 65.9188 408.388 65.2791 407.819C64.675 407.286 63.7867 407.322 63.2181 407.891Z" fill="#4691F2"/>
<path d="M290.502 131.354C289.863 131.994 289.223 132.704 288.584 133.415C288.015 134.055 288.122 135.014 288.761 135.512C289.401 136.08 290.36 135.974 290.858 135.334C292.954 132.882 295.406 130.786 298 129.186C298.711 128.76 298.924 127.836 298.498 127.125C298.072 126.415 297.148 126.202 296.437 126.628C294.376 127.907 292.35 129.506 290.502 131.354ZM283.431 141.766C283.289 141.908 283.218 142.05 283.111 142.228C281.69 145.497 280.837 148.909 280.482 152.32C280.41 153.173 280.979 153.884 281.832 153.955C282.685 154.026 283.395 153.457 283.466 152.604C283.786 149.513 284.568 146.457 285.883 143.436C286.203 142.69 285.847 141.766 285.101 141.446C284.497 141.197 283.857 141.34 283.431 141.766ZM305.498 123.394C305.179 123.714 304.965 124.212 305.072 124.745C305.25 125.562 305.996 126.095 306.813 125.988C309.905 125.455 313.103 125.384 316.301 125.811C317.119 125.917 317.9 125.349 318.007 124.531C318.114 123.714 317.545 122.932 316.728 122.826C313.21 122.364 309.692 122.399 306.316 123.003C305.996 123.039 305.712 123.181 305.498 123.394ZM281.796 161.31C281.405 161.701 281.263 162.27 281.405 162.767C282.258 165.752 283.68 168.524 285.563 170.976C285.847 171.331 286.132 171.687 286.416 172.042C286.984 172.682 287.908 172.753 288.548 172.184C289.152 171.651 289.259 170.692 288.69 170.052C288.441 169.732 288.157 169.448 287.944 169.093C286.309 166.961 285.066 164.509 284.284 161.879C284.035 161.062 283.218 160.6 282.4 160.849C282.187 160.991 281.974 161.133 281.796 161.31ZM325.043 125.882C324.901 126.024 324.794 126.202 324.723 126.344C324.403 127.09 324.759 128.014 325.505 128.334C328.419 129.542 331.191 131.176 333.856 133.131C334.495 133.628 335.49 133.486 335.952 132.811C336.45 132.171 336.308 131.176 335.632 130.714C332.825 128.618 329.805 126.877 326.713 125.562C326.145 125.349 325.469 125.455 325.043 125.882ZM167.586 300.112C167.017 300.68 166.981 301.64 167.55 302.208C168.154 302.812 169.078 302.812 169.682 302.279C171.921 300.112 174.444 297.944 177.074 295.741C177.713 295.243 177.82 294.284 177.287 293.609C176.789 292.969 175.83 292.863 175.155 293.396C172.454 295.599 169.931 297.837 167.586 300.112ZM160.692 307.29C160.656 307.325 160.656 307.325 160.621 307.361C158.346 309.991 156.25 312.727 154.437 315.392C153.975 316.067 154.153 317.027 154.828 317.489C155.504 317.951 156.463 317.773 156.925 317.098C158.702 314.468 160.727 311.874 162.895 309.351C163.463 308.711 163.357 307.752 162.753 307.219C162.113 306.721 161.225 306.757 160.692 307.29ZM83.722 386.036C83.1534 386.605 83.1179 387.564 83.722 388.168C84.3261 388.773 85.25 388.773 85.8541 388.168C88.1995 385.823 90.6159 383.549 93.0323 381.275C93.6008 380.706 93.6364 379.747 93.1033 379.142C92.4992 378.538 91.5753 378.538 90.9712 379.071C88.5548 381.346 86.1029 383.655 83.722 386.036ZM76.686 393.143C74.3407 395.56 72.0309 398.012 69.7921 400.464C69.2236 401.103 69.2946 402.027 69.8632 402.596C70.5028 403.164 71.4268 403.093 71.9953 402.525C74.1985 400.108 76.5083 397.656 78.8181 395.276C79.4222 394.671 79.3867 393.712 78.747 393.143C78.2495 392.575 77.2901 392.539 76.686 393.143ZM183.008 287.39C182.51 287.888 182.439 288.74 182.83 289.345C183.292 290.02 184.287 290.162 184.927 289.664C186.313 288.634 187.77 287.603 189.262 286.608C190.541 285.755 191.785 284.867 193.1 284.05C193.775 283.588 193.988 282.664 193.526 281.989C193.064 281.314 192.14 281.1 191.465 281.562C190.151 282.451 188.871 283.304 187.592 284.156C186.064 285.187 184.607 286.217 183.221 287.248C183.115 287.283 183.043 287.355 183.008 287.39ZM294.198 176.271C294.092 176.378 293.985 176.484 293.949 176.591C293.559 177.337 293.807 178.225 294.554 178.616C297.503 180.215 300.808 181.459 304.326 182.205C305.143 182.383 305.96 181.85 306.138 181.033C306.316 180.215 305.783 179.398 304.965 179.22C301.732 178.545 298.711 177.444 296.01 175.951C295.371 175.667 294.66 175.809 294.198 176.271ZM98.256 372.355C97.6874 372.924 97.6519 373.812 98.1849 374.416C98.7535 375.056 99.7129 375.091 100.317 374.558C102.805 372.355 105.292 370.152 107.815 367.984C108.455 367.416 108.526 366.492 107.957 365.852C107.389 365.213 106.465 365.142 105.825 365.71C103.302 367.878 100.743 370.081 98.2915 372.32C98.2915 372.32 98.2915 372.32 98.256 372.355ZM113.465 359.42C112.932 359.953 112.861 360.806 113.359 361.446C113.856 362.086 114.815 362.192 115.491 361.659C117.267 360.238 119.08 358.781 120.857 357.359C121.638 356.72 122.491 356.08 123.308 355.476C123.948 354.978 124.126 354.019 123.593 353.344C123.095 352.704 122.136 352.526 121.461 353.06C120.608 353.699 119.826 354.339 118.973 354.978C117.196 356.4 115.349 357.821 113.572 359.314C113.572 359.314 113.536 359.349 113.465 359.42ZM149.569 323.814C149.463 323.92 149.391 324.063 149.285 324.24C148.539 325.768 147.828 327.332 147.188 328.895C146.549 330.459 145.98 332.094 145.518 333.764C145.269 334.581 145.731 335.398 146.549 335.647C147.366 335.896 148.183 335.434 148.432 334.617C148.894 333.089 149.427 331.49 150.031 330.033C150.6 328.54 151.31 327.048 152.021 325.555C152.412 324.809 152.092 323.92 151.346 323.53C150.706 323.245 149.996 323.387 149.569 323.814ZM199.638 276.374C199.141 276.872 199.034 277.618 199.425 278.222C199.852 278.933 200.776 279.146 201.486 278.719C204.294 276.978 207.172 275.308 210.05 273.709C210.797 273.318 211.045 272.359 210.619 271.648C210.228 270.902 209.269 270.653 208.558 271.079C205.644 272.714 202.73 274.42 199.887 276.125C199.816 276.196 199.71 276.303 199.638 276.374ZM129.385 347.338C128.888 347.836 128.781 348.653 129.207 349.222C129.669 349.897 130.629 350.075 131.304 349.613C134.218 347.623 136.954 345.881 139.655 344.318C140.365 343.891 140.614 343.003 140.223 342.257C139.797 341.546 138.908 341.297 138.162 341.688C135.355 343.287 132.583 345.064 129.634 347.09C129.527 347.196 129.456 347.267 129.385 347.338ZM340.963 137.679C340.43 138.212 340.359 139.136 340.892 139.74C343.024 142.228 344.801 144.929 346.258 147.736C346.648 148.482 347.537 148.802 348.283 148.411C349.029 148.02 349.349 147.132 348.958 146.386C347.43 143.365 345.476 140.487 343.237 137.822C342.668 137.182 341.745 137.111 341.105 137.679C341.034 137.608 340.998 137.644 340.963 137.679ZM217.051 266.637C216.589 267.099 216.482 267.775 216.767 268.414C217.157 269.16 218.046 269.48 218.792 269.089C221.741 267.561 224.726 266.14 227.747 264.754C228.529 264.399 228.849 263.51 228.493 262.729C228.138 261.947 227.249 261.627 226.468 261.982C223.447 263.368 220.391 264.861 217.442 266.389C217.335 266.424 217.157 266.531 217.051 266.637ZM146.726 337.459C146.3 337.886 146.158 338.526 146.406 339.13C146.726 339.876 147.65 340.231 148.396 339.911C151.488 338.526 154.58 337.424 157.565 336.571C158.346 336.358 158.844 335.505 158.631 334.723C158.417 333.941 157.565 333.444 156.783 333.657C153.656 334.51 150.422 335.683 147.188 337.14C146.975 337.211 146.868 337.317 146.726 337.459ZM143.955 342.932C143.706 343.181 143.564 343.465 143.528 343.856C143.173 347.267 143.102 350.75 143.35 354.126C143.421 354.978 144.168 355.583 144.95 355.511C145.802 355.44 146.371 354.73 146.335 353.912C146.122 350.714 146.122 347.445 146.513 344.211C146.62 343.394 146.016 342.648 145.198 342.541C144.701 342.399 144.274 342.612 143.955 342.932ZM235.209 258.287C234.783 258.713 234.641 259.353 234.89 259.957C235.209 260.703 236.098 261.094 236.844 260.774C237.981 260.277 239.118 259.85 240.255 259.353C242.139 258.606 244.022 257.86 246.083 257.078C246.865 256.794 247.256 255.906 246.972 255.124C246.687 254.342 245.799 253.951 245.017 254.236C242.956 255.017 241.002 255.764 239.118 256.51C237.946 256.972 236.809 257.469 235.671 257.896C235.494 258.002 235.352 258.144 235.209 258.287ZM313.494 180.5C313.21 180.784 313.032 181.175 313.067 181.637C313.103 182.454 313.814 183.094 314.631 183.058C316.692 182.987 318.718 182.738 320.708 182.383C322.058 182.099 323.408 181.814 324.794 181.424C325.576 181.21 326.073 180.357 325.86 179.576C325.647 178.794 324.794 178.296 324.012 178.51C322.733 178.865 321.418 179.185 320.139 179.398C318.291 179.753 316.372 179.967 314.524 180.038C314.062 180.073 313.743 180.251 313.494 180.5ZM445.224 51.6127C445.117 51.7193 445.046 51.8615 444.939 52.0392C443.482 54.9886 441.99 57.9735 440.426 60.8874C440.035 61.6337 440.32 62.5576 441.03 62.9129C441.777 63.3038 442.701 63.0196 443.056 62.3089C444.62 59.3949 446.148 56.3745 447.605 53.3539C447.995 52.6077 447.676 51.7193 446.929 51.3284C446.361 51.0441 445.686 51.1507 445.224 51.6127ZM165.88 332.165C165.56 332.485 165.418 332.911 165.453 333.373C165.524 334.226 166.271 334.83 167.088 334.723C169.114 334.546 171.175 334.474 173.2 334.51C174.373 334.546 175.545 334.652 176.718 334.83C177.535 334.936 178.317 334.368 178.424 333.551C178.53 332.733 177.962 331.951 177.145 331.845C175.865 331.703 174.586 331.561 173.307 331.561C171.175 331.49 169.007 331.596 166.839 331.774C166.484 331.774 166.129 331.916 165.88 332.165ZM253.901 251.18C253.51 251.57 253.332 252.175 253.546 252.743C253.83 253.525 254.683 253.951 255.465 253.667C258.343 252.636 261.257 251.641 264.135 250.682L264.881 250.433C265.663 250.149 266.09 249.296 265.805 248.514C265.521 247.733 264.668 247.306 263.886 247.59L263.14 247.839C260.226 248.834 257.348 249.865 254.434 250.86C254.221 250.931 254.043 251.037 253.901 251.18ZM435.842 69.2383C435.736 69.3449 435.665 69.4159 435.594 69.5581C433.959 72.4009 432.218 75.2793 430.512 78.1221C430.086 78.8328 430.299 79.7567 431.009 80.1832C431.72 80.6096 432.644 80.3964 433.071 79.6857C434.847 76.8428 436.553 73.9289 438.223 71.0506C438.65 70.3398 438.365 69.4159 437.655 68.9895C437.05 68.6697 436.304 68.7763 435.842 69.2383ZM349.918 155.305C349.562 155.66 349.385 156.193 349.491 156.726C350.06 159.214 350.486 161.772 350.628 164.402C350.38 164.58 350.131 164.757 349.847 164.971C349.171 165.433 348.994 166.392 349.527 167.067C349.989 167.671 350.771 167.885 351.41 167.529C351.659 167.707 351.943 167.778 352.299 167.778C353.116 167.742 353.791 167.067 353.756 166.25C353.756 166.108 353.756 166.037 353.756 165.895C353.862 165.788 354.004 165.717 354.111 165.61C355.994 164.224 357.842 162.803 359.69 161.382C360.33 160.884 360.436 159.925 359.974 159.249C359.477 158.61 358.517 158.503 357.842 158.965C356.385 160.067 354.964 161.204 353.471 162.27C353.258 160.138 352.867 158.041 352.405 156.016C352.227 155.198 351.375 154.701 350.593 154.914C350.38 154.985 350.095 155.127 349.918 155.305ZM332.683 175.454C332.257 175.88 332.114 176.591 332.399 177.159C332.754 177.941 333.642 178.261 334.389 177.87C337.303 176.52 340.217 174.956 343.308 173.002C344.019 172.575 344.232 171.651 343.806 170.941C343.379 170.23 342.455 170.017 341.745 170.443C338.724 172.326 335.917 173.854 333.145 175.134C332.932 175.205 332.79 175.347 332.683 175.454ZM145.518 362.69C145.163 363.045 144.95 363.614 145.127 364.147C146.087 367.522 147.366 370.792 149.001 373.706C149.391 374.452 150.315 374.736 151.026 374.31C151.772 373.919 152.057 372.995 151.63 372.284C150.138 369.512 148.929 366.527 148.041 363.365C147.828 362.583 146.975 362.086 146.193 362.299C145.909 362.37 145.696 362.512 145.518 362.69ZM425.359 86.2597C425.288 86.3308 425.217 86.4019 425.182 86.5084C423.369 89.2447 421.45 92.0164 419.567 94.6816C419.105 95.3568 419.247 96.2807 419.922 96.8137C420.598 97.2757 421.522 97.1335 422.055 96.4584C423.973 93.7577 425.892 90.9859 427.74 88.2142C428.202 87.539 428.025 86.5795 427.314 86.1531C426.674 85.6556 425.857 85.7622 425.359 86.2597ZM413.775 102.535C413.739 102.57 413.668 102.642 413.633 102.677C411.643 105.307 409.582 107.936 407.485 110.459C406.988 111.099 407.059 112.023 407.698 112.591C408.338 113.089 409.297 113.053 409.83 112.378C411.927 109.784 414.024 107.119 416.014 104.489C416.511 103.85 416.404 102.89 415.729 102.357C415.161 101.931 414.308 102.002 413.775 102.535ZM272.735 244.641C272.344 245.032 272.166 245.636 272.379 246.205C272.664 246.986 273.517 247.413 274.298 247.128C277.816 245.885 280.872 244.748 283.715 243.682C284.497 243.397 284.888 242.509 284.604 241.727C284.319 240.945 283.431 240.554 282.649 240.839C279.877 241.905 276.786 243.006 273.303 244.286C273.09 244.357 272.912 244.463 272.735 244.641ZM365.482 152.889C364.949 153.422 364.914 154.31 365.376 154.914C365.873 155.554 366.868 155.625 367.508 155.127C370.066 152.995 372.625 150.792 375.112 148.589C375.752 148.02 375.787 147.061 375.254 146.457C374.686 145.817 373.726 145.782 373.122 146.315C370.635 148.518 368.112 150.685 365.589 152.782C365.553 152.818 365.518 152.853 365.482 152.889ZM401.16 117.993C401.124 118.028 401.124 118.028 401.089 118.064C398.921 120.587 396.682 123.039 394.479 125.455C393.911 126.095 393.982 127.019 394.55 127.587C395.19 128.156 396.078 128.12 396.682 127.516C398.957 125.1 401.195 122.577 403.363 120.054C403.931 119.414 403.86 118.49 403.221 117.922C402.617 117.389 401.728 117.424 401.16 117.993ZM380.443 139.634C379.874 140.202 379.839 141.162 380.407 141.73C381.011 142.335 381.935 142.335 382.539 141.802C384.956 139.527 387.372 137.182 389.717 134.766C390.321 134.161 390.286 133.202 389.717 132.633C389.113 132.029 388.154 132.065 387.585 132.633C385.275 135.014 382.895 137.324 380.443 139.634ZM185.495 334.865C185.353 335.008 185.247 335.185 185.14 335.363C184.82 336.109 185.211 336.998 185.957 337.317C188.942 338.526 191.75 340.125 194.344 342.008C195.019 342.47 195.943 342.328 196.44 341.688C196.902 341.013 196.76 340.089 196.12 339.592C193.313 337.566 190.293 335.896 187.13 334.581C186.561 334.297 185.922 334.439 185.495 334.865ZM350.593 175.169C350.38 175.382 350.238 175.667 350.166 176.022C349.669 179.149 348.887 182.347 347.892 185.475C347.608 186.256 348.07 187.145 348.852 187.358C349.633 187.642 350.486 187.216 350.735 186.398C351.801 183.129 352.618 179.753 353.151 176.449C353.258 175.631 352.689 174.849 351.872 174.743C351.375 174.672 350.913 174.849 350.593 175.169ZM291.426 237.463C291 237.889 290.858 238.529 291.107 239.133C291.426 239.879 292.315 240.27 293.097 239.915L293.949 239.559C296.828 238.316 299.6 237.036 302.229 235.757C302.975 235.366 303.295 234.478 302.904 233.732C302.513 232.985 301.625 232.666 300.879 233.056C298.285 234.3 295.549 235.615 292.706 236.823L291.853 237.179C291.675 237.214 291.533 237.356 291.426 237.463ZM155.042 380.031C154.473 380.599 154.437 381.559 155.006 382.127C155.255 382.376 155.504 382.625 155.717 382.838C156.783 383.904 157.955 384.935 159.164 385.859C160.407 386.818 161.758 387.742 163.215 388.488C163.961 388.879 164.849 388.63 165.24 387.884C165.631 387.138 165.382 386.25 164.636 385.859C163.357 385.148 162.149 384.366 160.976 383.478C159.874 382.589 158.808 381.666 157.813 380.671C157.6 380.457 157.387 380.244 157.138 379.995C156.641 379.427 155.681 379.391 155.042 380.031ZM309.301 228.615C308.839 229.076 308.732 229.823 309.052 230.427C309.478 231.138 310.367 231.386 311.113 230.995C314.134 229.254 317.012 227.442 319.642 225.594C320.317 225.132 320.494 224.173 320.032 223.497C319.57 222.822 318.611 222.645 317.936 223.107C315.342 224.919 312.499 226.696 309.621 228.366C309.478 228.437 309.372 228.543 309.301 228.615ZM344.41 194.074C344.303 194.181 344.197 194.287 344.125 194.429C342.668 197.308 340.963 200.151 339.044 202.78C338.582 203.455 338.724 204.379 339.399 204.912C340.074 205.374 340.998 205.232 341.531 204.557C343.521 201.785 345.298 198.871 346.826 195.851C347.217 195.105 346.897 194.216 346.151 193.825C345.547 193.506 344.836 193.648 344.41 194.074ZM325.647 217.172C325.114 217.705 325.043 218.629 325.576 219.233C326.145 219.873 327.068 219.944 327.673 219.411C329.556 217.812 331.368 216.142 333.038 214.471C333.714 213.796 334.389 213.121 334.993 212.446C335.561 211.806 335.561 210.882 334.922 210.314C334.282 209.745 333.394 209.781 332.79 210.385C332.186 211.06 331.546 211.7 330.871 212.375C329.236 214.009 327.495 215.609 325.683 217.137C325.683 217.137 325.683 217.137 325.647 217.172ZM201.486 346.45C200.953 346.983 200.918 347.871 201.38 348.475C203.512 351.034 205.146 353.735 206.284 356.578C206.568 357.359 207.492 357.715 208.238 357.395C209.02 357.111 209.375 356.187 209.055 355.44C207.812 352.349 205.999 349.328 203.69 346.521C203.192 345.881 202.197 345.81 201.557 346.308C201.522 346.414 201.486 346.45 201.486 346.45ZM172.241 389.412C172.027 389.625 171.885 389.91 171.814 390.194C171.637 391.011 172.205 391.793 173.022 391.971C176.398 392.575 179.881 392.717 183.399 392.397C184.252 392.326 184.856 391.58 184.749 390.763C184.643 389.945 183.932 389.306 183.115 389.412C179.881 389.732 176.683 389.59 173.591 389.057C173.094 388.915 172.596 389.057 172.241 389.412ZM208.522 364.715C208.238 364.999 208.096 365.355 208.096 365.781C208.096 367.416 207.883 369.05 207.527 370.685C207.208 372.142 206.746 373.528 206.106 374.878C205.751 375.66 206.07 376.548 206.817 376.868C207.598 377.224 208.487 376.904 208.807 376.158C209.517 374.665 210.086 373.03 210.441 371.396C210.832 369.583 211.081 367.7 211.081 365.852C211.081 364.999 210.406 364.324 209.588 364.36C209.162 364.289 208.771 364.466 208.522 364.715ZM191.892 387.458C191.465 387.884 191.323 388.524 191.536 389.092C191.856 389.839 192.745 390.23 193.491 389.91C196.867 388.524 199.887 386.712 202.446 384.508C203.05 383.975 203.156 383.016 202.588 382.376C202.019 381.737 201.095 381.666 200.456 382.234C198.182 384.224 195.445 385.894 192.389 387.102C192.212 387.209 192.034 387.316 191.892 387.458Z" fill="#4691F2"/>
<path d="M451.549 37.8959C451.407 38.0381 451.336 38.1802 451.229 38.3579C450.554 39.8859 449.879 41.4139 449.204 42.942C448.884 43.6882 449.204 44.5766 449.986 44.9319C450.732 45.2517 451.62 44.932 451.975 44.1502C452.651 42.6222 453.361 41.0586 454.037 39.5306C454.356 38.7843 454.001 37.8604 453.255 37.5406C452.651 37.2918 451.975 37.4695 451.549 37.8959Z" fill="#4691F2"/>
<path d="M25.7993 407.082C24.2609 409.017 23.8901 411.627 24.7844 413.917L33.9609 437.321C34.6064 438.971 34.3181 440.763 33.2799 442.147L27.3882 449.714C25.9114 451.571 24.8987 453.797 24.3881 456.107L24.0682 457.621C23.8169 458.811 25.0549 459.795 26.1573 459.283L27.5605 458.63C29.6959 457.613 31.6371 456.125 33.114 454.268L39.1604 446.824C40.2373 445.47 41.9877 444.778 43.7101 445.074L68.5784 448.747C71.0112 449.103 73.4711 448.154 75.0095 446.22C64.4203 444.366 53.3201 439.264 48.8131 437.07C48.1792 436.755 48.0534 435.96 48.4534 435.457L50.378 436.293C51.3056 436.715 52.3852 436.31 52.8845 435.444L54.1591 433.048C54.3358 432.746 54.3964 432.352 54.3182 431.974C54.2399 431.596 54.3005 431.202 54.508 430.862L55.0073 429.996L54.1756 430.724C53.9216 430.964 53.6209 431.104 53.2736 431.143L52.718 431.207L51.815 431.31L53.0765 429.723C53.8765 428.718 54.5912 427.581 55.1283 426.429L57.8594 420.454L64.7595 422.657C66.2586 423.155 67.878 422.548 68.7079 421.187L69.9219 419.184L59.8381 415.901L60.5976 414.231C60.7435 413.968 60.3953 413.692 60.172 413.893L58.7162 415.009L53.209 405.892L51.5 407.564C50.3914 408.641 50.1647 410.355 50.9561 411.742L54.7029 418.07L49.5266 422.037C48.4945 422.858 47.5784 423.772 46.7784 424.778L45.5169 426.364L45.414 425.461L45.3506 424.905C45.311 424.558 45.3796 424.234 45.5563 423.932L46.0784 422.958L45.347 423.639C45.0622 423.918 44.692 424.066 44.3061 424.075C43.9201 424.083 43.5887 424.262 43.2959 424.471L41.2476 426.253C40.4774 426.903 40.365 428.077 40.9849 428.886L42.2326 430.573C41.8019 431.114 40.9913 431.101 40.5806 430.585C37.4196 426.619 29.9886 416.982 25.7993 407.082Z" fill="#4691F2"/>
<path d="M453.802 0C431.748 0 453.802 26.5312 453.802 26.5312C453.802 26.5312 475.856 0 453.802 0ZM453.802 16.8142C449.706 16.8142 446.371 13.4799 446.371 9.38356C446.371 5.28718 449.706 1.95292 453.802 1.95292C457.898 1.95292 461.233 5.28718 461.233 9.38356C461.233 13.4799 457.898 16.8142 453.802 16.8142Z" fill="#4691F2"/>
<path d="M453.802 2.90558C450.23 2.90558 447.372 5.76352 447.372 9.33594C447.372 12.9084 450.23 15.7663 453.802 15.7663C457.327 15.7663 460.232 12.9084 460.232 9.33594C460.232 5.81115 457.374 2.90558 453.802 2.90558ZM453.802 14.766C450.801 14.766 448.419 12.3368 448.419 9.38357C448.419 6.38274 450.849 4.00112 453.802 4.00112C456.803 4.00112 459.184 6.43037 459.184 9.38357C459.184 12.3368 456.803 14.766 453.802 14.766Z" fill="#4691F2"/>
<path d="M456.326 31.7231C456.326 33.1044 455.231 34.2 453.849 34.2C452.468 34.2 451.373 33.1044 451.373 31.7231C451.373 30.3418 452.468 29.2462 453.849 29.2462C455.183 29.2462 456.326 30.3418 456.326 31.7231Z" fill="#4691F2"/>
</g>
</svg>
