<svg width="52" height="52" viewBox="0 0 52 52" fill="none" xmlns="http://www.w3.org/2000/svg">
<path fill-rule="evenodd" clip-rule="evenodd" d="M7.73488 6.76103C7.47629 6.78539 7.23618 6.90563 7.06177 7.09809C6.88736 7.29055 6.79128 7.5413 6.79243 7.80103V23.5473C4.56111 25.0029 3.11988 27.4558 3.11988 30.7297V40.1547V44.1522C3.11958 44.289 3.14627 44.4245 3.1984 44.5509C3.25053 44.6774 3.32709 44.7923 3.42369 44.8891C3.5203 44.9859 3.63504 45.0627 3.76137 45.1151C3.88769 45.1675 4.02311 45.1945 4.15988 45.1945C4.29664 45.1945 4.43206 45.1675 4.55838 45.1151C4.68471 45.0627 4.79945 44.9859 4.89606 44.8891C4.99266 44.7923 5.06922 44.6774 5.12135 44.5509C5.17348 44.4245 5.20017 44.289 5.19988 44.1522V41.1947H46.7999V44.1522C46.7996 44.289 46.8263 44.4245 46.8784 44.5509C46.9305 44.6774 47.0071 44.7923 47.1037 44.8891C47.2003 44.9859 47.315 45.0627 47.4414 45.1151C47.5677 45.1675 47.7031 45.1945 47.8399 45.1945C47.9766 45.1945 48.1121 45.1675 48.2384 45.1151C48.3647 45.0627 48.4795 44.9859 48.5761 44.8891C48.6727 44.7923 48.7492 44.6774 48.8013 44.5509C48.8535 44.4245 48.8802 44.289 48.8799 44.1522V40.1711C48.8799 40.1657 48.8799 40.1603 48.8799 40.1549V30.7299C48.8799 27.4519 47.4405 25.0028 45.2074 23.5474V7.80115C45.2074 7.52533 45.0979 7.26082 44.9028 7.06578C44.7078 6.87074 44.4433 6.76115 44.1674 6.76115H7.83243C7.79993 6.75963 7.76737 6.7595 7.73488 6.76103ZM8.87243 8.84103H43.1274V22.5073C41.9375 22.0643 40.6213 21.7863 39.2436 21.646V15.9098C39.2457 15.672 39.1662 15.4406 39.0183 15.2543C38.8705 15.068 38.6632 14.938 38.4311 14.886C37.3555 14.6454 36.3951 14.8993 35.5874 15.1298C34.7796 15.3602 34.0966 15.5685 33.5887 15.5685C32.9959 15.5685 32.2889 15.3302 31.4437 15.081C30.5984 14.8319 29.5676 14.5826 28.4212 14.9023C28.2008 14.963 28.0067 15.0946 27.8686 15.2767C27.7306 15.4588 27.6564 15.6813 27.6574 15.9098V21.5323H24.3424V15.9098C24.3445 15.6719 24.2649 15.4406 24.1171 15.2543C23.9692 15.068 23.762 14.938 23.5299 14.886C22.4527 14.6458 21.478 14.8993 20.6699 15.1298C19.8618 15.3603 19.1756 15.5685 18.6712 15.5685C18.075 15.5685 17.3872 15.3301 16.5424 15.081C15.6975 14.832 14.6484 14.5821 13.5037 14.9023C13.2864 14.9659 13.0958 15.0988 12.9609 15.2806C12.826 15.4625 12.7541 15.6834 12.7562 15.9098V21.646C11.3791 21.7874 10.0627 22.0632 8.87243 22.5073V8.84103ZM14.8199 16.836C15.1571 16.8608 15.5356 16.9554 15.9574 17.0798C16.7088 17.3013 17.5878 17.6485 18.6712 17.6485C19.6642 17.6485 20.5063 17.3374 21.2387 17.1285C21.6126 17.0219 21.954 16.939 22.2624 16.901V21.5323H15.1937C15.0737 21.5323 14.9393 21.5307 14.8199 21.5323V16.836ZM29.7374 16.836C30.0763 16.8605 30.4359 16.9552 30.8587 17.0798C31.6098 17.3012 32.5072 17.6485 33.5887 17.6485C34.5835 17.6485 35.4235 17.3375 36.1562 17.1285C36.529 17.0222 36.8569 16.9392 37.1637 16.901V21.5323C37.0495 21.5307 36.9371 21.5323 36.8224 21.5323H29.7374V16.836ZM5.19988 31.7697H46.7999V39.1147H5.19988V31.7697Z" fill="white"/>
</svg>
