<svg width="52" height="52" viewBox="0 0 52 52" fill="none" xmlns="http://www.w3.org/2000/svg">
<path d="M25.792 15.808C21.424 15.808 17.888 19.344 17.888 23.712C17.888 28.08 21.424 31.616 25.792 31.616C30.16 31.616 33.696 28.08 33.696 23.712C33.696 19.344 30.16 15.808 25.792 15.808ZM23.504 28.6C23.4 28.704 23.192 28.808 22.88 28.704C21.632 27.872 20.904 26.728 20.592 25.168C20.592 24.96 20.696 24.752 20.904 24.648C21.112 24.648 21.32 24.752 21.424 24.96C21.736 26.312 22.36 27.352 23.4 27.976C23.608 28.184 23.608 28.392 23.504 28.6ZM25.272 19.032C23.088 19.032 21.112 21.216 21.112 22.984C21.112 23.192 20.904 23.4 20.696 23.4C20.488 23.4 20.28 23.192 20.28 22.984C20.28 20.696 22.88 18.2 25.272 18.2C25.48 18.2 25.688 18.408 25.688 18.616C25.688 18.824 25.48 19.032 25.272 19.032ZM30.576 22.048C30.472 22.048 30.16 21.944 30.056 21.736C29.744 21.008 29.328 20.384 28.704 19.968C28.496 19.864 28.496 19.552 28.6 19.344C28.704 19.136 29.016 19.136 29.224 19.24C29.952 19.76 30.576 20.488 30.888 21.32C30.992 21.632 30.992 22.048 30.576 22.048ZM25.688 32.552C17.368 32.552 10.504 36.92 10.504 42.328C10.504 42.744 10.816 43.16 11.336 43.16H40.04C40.456 43.16 40.872 42.848 40.872 42.328C40.872 36.92 34.008 32.552 25.688 32.552ZM25.688 34.944C21.528 34.944 17.68 36.192 15.6 38.376C14.768 39.208 14.248 40.144 14.144 41.184H15.808C16.016 41.184 16.224 41.392 16.224 41.6C16.224 41.808 16.016 42.016 15.808 42.016H13.728C13.52 42.016 13.312 41.808 13.312 41.6C13.312 40.248 13.936 39 15.08 37.856C17.368 35.568 21.424 34.216 25.688 34.216H25.792C26 34.216 26.208 34.32 26.208 34.632C26.208 34.84 25.896 34.944 25.688 34.944ZM36.712 39C36.504 39.104 36.296 39 36.192 38.896C35.36 37.856 34.112 37.024 32.552 36.4C32.344 36.296 32.24 36.088 32.344 35.88C32.448 35.672 32.656 35.568 32.864 35.672C34.528 36.4 35.88 37.336 36.816 38.48C36.92 38.688 37.024 38.896 36.712 39ZM36.192 8.83997C32.864 8.83997 29.848 10.816 28.704 14.248C28.496 14.976 29.12 15.08 29.848 15.496C30.784 16.12 32.448 17.16 33.488 18.72C34.424 20.28 34.84 21.632 35.048 22.36C35.256 23.088 35.256 23.712 35.984 23.712C40.56 23.712 44.096 20.696 44.096 16.64C44.096 12.376 40.456 8.83997 36.192 8.83997ZM35.256 11.44C34.736 11.44 34.112 11.648 33.488 11.96C33.384 11.96 33.072 12.064 32.864 11.752C32.76 11.544 32.864 11.336 33.072 11.232C33.8 10.816 34.528 10.712 35.256 10.712C35.464 10.712 35.672 10.92 35.672 11.128C35.672 11.336 35.568 11.44 35.256 11.44ZM39.728 11.96C39.936 11.752 40.144 11.856 40.352 11.96C41.08 12.48 41.704 13.208 42.016 14.04C42.12 14.248 42.016 14.56 41.808 14.56C41.496 14.56 41.392 14.456 41.288 14.248C40.976 13.52 40.56 12.896 39.936 12.48C39.728 12.272 39.624 12.064 39.728 11.96ZM38.272 21.944C37.856 22.048 37.544 22.048 37.128 22.048C36.92 22.048 36.712 21.84 36.712 21.632C36.712 21.424 36.92 21.216 37.128 21.216C39.52 21.216 41.6 19.136 41.704 17.264C41.704 17.056 41.912 16.848 42.12 16.848C42.328 16.848 42.536 17.056 42.536 17.264C42.432 19.24 40.664 21.424 38.272 21.944ZM23.192 14.352C22.152 11.128 19.136 8.94397 15.704 8.94397C11.336 8.94397 7.80002 12.48 7.80002 16.848C7.80002 21.216 11.336 24.336 15.704 24.336C16.952 24.336 16.536 24.024 16.744 22.88C17.056 21.216 17.576 20.176 18.408 18.824C19.552 16.952 21.528 15.912 22.36 15.496C23.088 15.08 23.4 14.976 23.192 14.352ZM15.184 12.064C13 12.064 11.024 14.248 11.024 16.016C11.024 16.224 10.816 16.432 10.608 16.432C10.4 16.432 10.192 16.224 10.192 16.016C10.192 13.728 12.792 11.232 15.184 11.232C15.392 11.232 15.6 11.44 15.6 11.648C15.6 11.856 15.496 12.064 15.184 12.064ZM20.488 14.872C20.072 14.976 19.968 14.768 19.864 14.664C19.24 13.416 18.304 12.584 17.16 12.272C16.952 12.168 16.848 11.96 16.848 11.752C16.848 11.544 17.16 11.44 17.368 11.44C18.72 11.856 19.76 12.792 20.592 14.248C20.8 14.56 20.696 14.768 20.488 14.872ZM19.864 30.68C19.864 30.68 18.616 29.12 17.992 28.08C17.472 27.144 17.16 25.584 17.16 25.584C17.056 25.272 16.744 25.168 16.432 25.168C16.224 25.168 15.912 25.168 15.704 25.168C7.38402 25.168 0.52002 29.536 0.52002 34.944C0.52002 35.36 0.83202 35.776 1.35202 35.776L11.856 35.88C11.96 35.88 12.168 35.88 12.272 35.776C12.272 35.776 13.832 34.32 15.184 33.592C16.952 32.552 19.552 31.928 19.552 31.928C19.968 31.408 20.072 30.992 19.864 30.68ZM6.96802 29.744C5.09602 30.784 3.95202 32.136 3.74402 33.592C3.74402 33.8 3.53602 34.008 3.32802 34.008C3.12002 34.008 2.91202 33.8 2.91202 33.592C3.12002 31.824 4.36802 30.264 6.55202 29.12C6.76002 29.016 6.96802 28.912 7.07202 29.224C7.28002 29.328 7.17602 29.64 6.96802 29.744ZM36.192 25.064C35.776 25.064 35.568 25.064 35.152 25.064C34.84 25.064 34.736 25.48 34.736 25.688C34.632 26.312 34.216 27.56 33.904 28.08C33.592 28.808 32.864 29.952 32.344 30.68C32.24 30.888 32.136 31.096 32.24 31.408C32.344 31.616 32.448 31.824 32.76 31.928C32.76 31.928 34.424 32.552 35.984 33.384C37.544 34.216 39 35.464 39 35.464C39.104 35.568 39.312 35.672 39.52 35.672H50.544C50.96 35.672 51.376 35.36 51.376 34.84C51.272 29.432 44.512 25.064 36.192 25.064ZM49.192 34.32H43.056C42.848 34.32 42.64 34.112 42.64 33.904C42.64 33.696 42.848 33.488 43.056 33.488H48.776C48.672 33.072 48.464 32.344 47.736 31.512C47.632 31.304 47.632 31.096 47.84 30.888C48.048 30.784 48.256 30.784 48.464 30.992C49.712 32.552 49.712 33.904 49.712 33.904C49.608 34.216 49.4 34.32 49.192 34.32Z" fill="white"/>
</svg>
