<svg width="52" height="52" viewBox="0 0 52 52" fill="none" xmlns="http://www.w3.org/2000/svg">
<path d="M41.0394 6.25526V8.85272C41.0471 9.40163 40.5494 9.9065 40.0005 9.9065C39.4515 9.9065 38.9538 9.40163 38.9616 8.85272V6.25526C38.9529 5.70043 39.4619 5.19138 40.0167 5.20006C40.5788 5.2141 41.0347 5.78735 41.0394 6.25526ZM28.0529 6.27808C23.3778 9.39503 21.3 11.9925 20.2611 15.6289C24.4167 18.2264 26.4946 22.3823 28.0529 26.5382C23.8973 23.9407 20.7805 22.3823 17.1443 23.4213C14.6024 28.5055 14.5482 35.0757 14.547 40.7106C17.4272 40.8957 20.067 42.3162 21.0078 44.7204H23.8486L27.6309 38.6164C26.1971 36.6988 25.4002 34.1091 25.4232 30.9538L22.6636 28.3402C22.2101 27.8129 22.2692 27.2966 22.6716 26.7817C23.2055 26.3973 23.6195 26.5107 24.0921 26.8301L38.4096 40.3694C40.2169 40.199 42.211 39.7678 44.3509 39.0544L45.0003 41.035C43.3933 41.5707 41.8394 41.9663 40.3576 42.2201L43.0036 44.7201C44.975 44.7201 46.9648 44.7201 48.9287 44.7201C49.4727 44.7456 49.9446 45.2638 49.9191 45.8078C49.8936 46.3519 49.3753 46.8237 48.8313 46.7981C33.9427 46.8033 19.0556 46.7981 4.15791 46.7981C3.60904 46.8059 3.1042 46.308 3.1042 45.7591C3.1042 45.2101 3.60904 44.7123 4.15791 44.7201H6.2682C6.94235 43.6137 7.81869 42.746 8.83303 42.1064C8.83459 34.3248 9.87456 30.1695 13.5081 23.421C9.87195 23.421 7.27465 26.0184 4.67737 29.6549C4.15791 24.9795 7.79411 19.7846 12.9887 17.1871C11.4303 13.0312 8.31357 11.4727 2.08008 9.91428C8.83303 7.31683 12.9887 10.4338 16.1054 13.5507C19.0305 9.35755 23.2898 5.95075 28.0529 6.27808ZM34.4975 8.10589L36.3318 9.94036C36.7185 10.3271 36.7185 11.0309 36.3318 11.4177C35.9451 11.8044 35.2413 11.8044 34.8546 11.4177L33.0203 9.58321C32.5908 9.02744 32.6402 8.5883 32.9954 8.08672C33.5043 7.64502 33.9999 7.70313 34.4975 8.10589ZM46.9752 8.08075C47.4458 8.55197 47.3388 9.22508 46.9807 9.58321L45.1464 11.4177C44.7596 11.8044 44.0559 11.8044 43.6692 11.4177C43.2824 11.0309 43.2824 10.3271 43.6692 9.94036L45.5035 8.10592C46.0617 7.6835 46.5186 7.76164 46.9752 8.08075ZM40.0005 11.4502C42.0087 11.4502 43.6367 13.0783 43.6367 15.0866C43.6367 17.0949 42.0087 18.723 40.0005 18.723C37.9923 18.723 36.3643 17.0949 36.3643 15.0866C36.3643 13.0783 37.9923 11.4502 40.0005 11.4502ZM48.9286 14.0476C49.4727 14.073 49.9446 14.5912 49.9191 15.1353C49.8935 15.6794 49.3753 16.1512 48.8313 16.1256H46.234C45.6851 16.1333 45.1803 15.6356 45.1803 15.0866C45.1803 14.5376 45.6851 14.0399 46.234 14.0476C47.1274 14.0476 48.0432 14.0476 48.9286 14.0476ZM33.8644 14.0476C34.4084 14.073 34.8803 14.5912 34.8548 15.1353C34.8293 15.6794 34.311 16.1512 33.767 16.1256H31.1697C30.6208 16.1333 30.116 15.6356 30.116 15.0866C30.116 14.5376 30.6208 14.0399 31.1697 14.0476C32.0631 14.0476 32.9789 14.0476 33.8644 14.0476ZM45.1463 18.7555L46.9807 20.6062C47.3756 20.9902 47.3786 21.7026 46.987 22.0899C46.5954 22.4773 45.8831 22.4664 45.5035 22.0672L43.6692 20.2328C43.235 19.7028 43.3202 19.2286 43.6319 18.7811C44.0586 18.3723 44.5983 18.3548 45.1463 18.7555ZM36.3181 18.7227C36.7955 19.1959 36.6139 19.8699 36.3318 20.2328L34.4975 22.0672C34.1179 22.4664 33.4056 22.4773 33.0139 22.09C32.6223 21.7026 32.6253 20.9902 33.0203 20.6062L34.8546 18.7555C35.4093 18.3351 35.861 18.3879 36.3181 18.7227ZM41.0394 21.3205V23.9179C41.0471 24.4668 40.5494 24.9717 40.0005 24.9717C39.4515 24.9717 38.9538 24.4668 38.9616 23.9179V21.3205C38.9529 20.7656 39.4619 20.2566 40.0167 20.2652C40.6018 20.2678 41.0347 20.8526 41.0394 21.3205ZM27.6147 33.0318C27.794 34.4998 28.2026 35.717 28.7997 36.717L29.8061 35.0936L27.6147 33.0318ZM31.332 36.5384L30.1957 38.3891C31.6705 39.6585 33.7302 40.2454 35.4228 40.4022L31.332 36.5384ZM29.0919 40.1587L26.2835 44.7204H39.9842L37.6629 42.5126C34.4008 42.4699 31.4306 42.0784 29.0919 40.1587Z" fill="white"/>
</svg>
