<svg width="52" height="52" viewBox="0 0 52 52" fill="none" xmlns="http://www.w3.org/2000/svg">
<path d="M44.72 47.4761H41.756V11.5961C41.756 11.1281 41.392 10.7641 40.924 10.7641H37.492V4.73206C37.492 4.26406 37.128 3.90006 36.66 3.90006H33.592V2.39206C33.592 1.92406 33.228 1.56006 32.76 1.56006H19.708C19.24 1.56006 18.876 1.92406 18.876 2.39206V3.90006H15.808C15.34 3.90006 14.976 4.26406 14.976 4.73206V10.7641H11.544C11.076 10.7641 10.712 11.1281 10.712 11.5961V47.5281H7.59203C7.43603 47.5281 7.28003 47.6841 7.28003 47.8401V50.6481C7.28003 50.8041 7.43603 50.9601 7.59203 50.9601H44.668C44.824 50.9601 44.98 50.8041 44.98 50.6481V47.8401C45.032 47.6321 44.876 47.4761 44.72 47.4761ZM18.096 35.7241C18.096 35.8801 17.94 36.0361 17.784 36.0361H15.184C15.028 36.0361 14.872 35.8801 14.872 35.7241V31.4601C14.872 31.3041 15.028 31.1481 15.184 31.1481H17.784C17.94 31.1481 18.096 31.3041 18.096 31.4601V35.7241ZM18.096 27.5601C18.096 27.7161 17.94 27.8721 17.784 27.8721H15.184C15.028 27.8721 14.872 27.7161 14.872 27.5601V23.2961C14.872 23.1401 15.028 22.9841 15.184 22.9841H17.784C17.94 22.9841 18.096 23.1401 18.096 23.2961V27.5601ZM18.096 19.3961C18.096 19.5521 17.94 19.7081 17.784 19.7081H15.184C15.028 19.7081 14.872 19.5521 14.872 19.3961V15.1321C14.872 14.9761 15.028 14.8201 15.184 14.8201H17.784C17.94 14.8201 18.096 14.9761 18.096 15.1321V19.3961ZM20.124 9.93206L19.032 10.5041C18.928 10.5561 18.824 10.4521 18.824 10.3481L19.032 9.10006V9.04806L18.148 8.16406C18.044 8.06006 18.096 7.95606 18.252 7.90406L19.5 7.69606C19.5 7.69606 19.552 7.69606 19.552 7.64406L20.124 6.50006C20.176 6.39606 20.332 6.39606 20.384 6.50006L20.956 7.64406L21.008 7.69606L22.256 7.85206C22.36 7.85206 22.412 8.00806 22.36 8.11206L21.424 8.99606C21.424 8.99606 21.372 9.04806 21.424 9.04806L21.632 10.2961C21.632 10.4001 21.528 10.5041 21.424 10.4521L20.28 9.88006C20.176 9.88006 20.176 9.88006 20.124 9.93206ZM24.284 27.9241H21.684C21.528 27.9241 21.372 27.7681 21.372 27.6121V23.3481C21.372 23.1921 21.528 23.0361 21.684 23.0361H24.284C24.44 23.0361 24.596 23.1921 24.596 23.3481V27.6121C24.596 27.7681 24.44 27.9241 24.284 27.9241ZM24.596 31.5121V35.7761C24.596 35.9321 24.44 36.0881 24.284 36.0881H21.684C21.528 36.0881 21.372 35.9321 21.372 35.7761V31.5121C21.372 31.3561 21.528 31.2001 21.684 31.2001H24.284C24.44 31.1481 24.596 31.3041 24.596 31.5121ZM24.284 19.7601H21.684C21.528 19.7601 21.372 19.6041 21.372 19.4481V15.1841C21.372 15.0281 21.528 14.8721 21.684 14.8721H24.284C24.44 14.8721 24.596 15.0281 24.596 15.1841V19.4481C24.596 19.6041 24.44 19.7601 24.284 19.7601ZM25.272 46.9561C25.272 47.1121 25.116 47.2681 24.96 47.2681H21.372C21.216 47.2681 21.06 47.1121 21.06 46.9561V39.6761C21.06 39.5201 21.216 39.3641 21.372 39.3641H24.96C25.116 39.3641 25.272 39.5201 25.272 39.6761V46.9561ZM26.104 9.93206L25.012 10.5041C24.908 10.5561 24.804 10.4521 24.804 10.3481L25.012 9.10006V9.04806L24.076 8.11206C23.972 8.00806 24.024 7.90406 24.18 7.85206L25.428 7.64406C25.428 7.64406 25.48 7.64406 25.48 7.59206L26.052 6.44806C26.104 6.34406 26.26 6.34406 26.312 6.44806L26.884 7.59206L26.936 7.64406L28.184 7.80006C28.288 7.80006 28.34 7.95606 28.288 8.06006L27.352 8.94406C27.352 8.94406 27.3 8.99606 27.352 8.99606L27.56 10.2441C27.56 10.3481 27.456 10.4521 27.352 10.4001L26.156 9.93206C26.156 9.88006 26.104 9.88006 26.104 9.93206ZM30.836 27.9241H28.236C28.08 27.9241 27.924 27.7681 27.924 27.6121V23.3481C27.924 23.1921 28.08 23.0361 28.236 23.0361H30.836C30.992 23.0361 31.148 23.1921 31.148 23.3481V27.6121C31.148 27.7681 30.992 27.9241 30.836 27.9241ZM31.148 31.5121V35.7761C31.148 35.9321 30.992 36.0881 30.836 36.0881H28.236C28.08 36.0881 27.924 35.9321 27.924 35.7761V31.5121C27.924 31.3561 28.08 31.2001 28.236 31.2001H30.836C30.992 31.1481 31.148 31.3041 31.148 31.5121ZM30.836 19.7601H28.236C28.08 19.7601 27.924 19.6041 27.924 19.4481V15.1841C27.924 15.0281 28.08 14.8721 28.236 14.8721H30.836C30.992 14.8721 31.148 15.0281 31.148 15.1841V19.4481C31.148 19.6041 30.992 19.7601 30.836 19.7601ZM31.46 46.9561C31.46 47.1121 31.304 47.2681 31.148 47.2681H27.56C27.404 47.2681 27.248 47.1121 27.248 46.9561V39.6761C27.248 39.5201 27.404 39.3641 27.56 39.3641H31.148C31.304 39.3641 31.46 39.5201 31.46 39.6761V46.9561ZM34.216 8.16406L33.28 9.04806C33.28 9.04806 33.228 9.10006 33.28 9.10006L33.488 10.3481C33.488 10.4521 33.384 10.5561 33.28 10.5041L32.136 9.93206H32.084L30.992 10.5041C30.888 10.5561 30.784 10.4521 30.784 10.3481L30.992 9.10006V9.04806L30.108 8.16406C30.004 8.06006 30.056 7.95606 30.212 7.90406L31.46 7.69606C31.46 7.69606 31.512 7.69606 31.512 7.64406L32.084 6.50006C32.136 6.39606 32.292 6.39606 32.344 6.50006L32.916 7.64406L32.968 7.69606L34.216 7.85206C34.268 7.90406 34.32 8.06006 34.216 8.16406ZM37.648 35.7241C37.648 35.8801 37.492 36.0361 37.336 36.0361H34.736C34.58 36.0361 34.424 35.8801 34.424 35.7241V31.4601C34.424 31.3041 34.58 31.1481 34.736 31.1481H37.336C37.492 31.1481 37.648 31.3041 37.648 31.4601V35.7241ZM37.648 27.5601C37.648 27.7161 37.492 27.8721 37.336 27.8721H34.736C34.58 27.8721 34.424 27.7161 34.424 27.5601V23.2961C34.424 23.1401 34.58 22.9841 34.736 22.9841H37.336C37.492 22.9841 37.648 23.1401 37.648 23.2961V27.5601ZM37.648 19.3961C37.648 19.5521 37.492 19.7081 37.336 19.7081H34.736C34.58 19.7081 34.424 19.5521 34.424 19.3961V15.1321C34.424 14.9761 34.58 14.8201 34.736 14.8201H37.336C37.492 14.8201 37.648 14.9761 37.648 15.1321V19.3961Z" fill="white"/>
</svg>
