<svg width="140" height="33" viewBox="0 0 140 33" fill="none" xmlns="http://www.w3.org/2000/svg">
<path d="M7.34399 25.2V4.32001H-1.36644e-05V1.04904e-05H19.44V4.32001H12.096V25.2H7.34399ZM20.3591 25.2V7.34401H24.8231V9.36001H25.4711C25.7351 8.64001 26.1671 8.11201 26.7671 7.77601C27.3911 7.44001 28.1111 7.27201 28.9271 7.27201H31.0871V11.304H28.8551C27.7031 11.304 26.7551 11.616 26.0111 12.24C25.2671 12.84 24.8951 13.776 24.8951 15.048V25.2H20.3591ZM39.7547 25.704C38.4827 25.704 37.3427 25.488 36.3347 25.056C35.3267 24.6 34.5227 23.952 33.9227 23.112C33.3467 22.248 33.0587 21.204 33.0587 19.98C33.0587 18.756 33.3467 17.736 33.9227 16.92C34.5227 16.08 35.3387 15.456 36.3707 15.048C37.4267 14.616 38.6267 14.4 39.9707 14.4H44.8667V13.392C44.8667 12.552 44.6027 11.868 44.0747 11.34C43.5467 10.788 42.7067 10.512 41.5547 10.512C40.4267 10.512 39.5867 10.776 39.0347 11.304C38.4827 11.808 38.1227 12.468 37.9547 13.284L33.7787 11.88C34.0667 10.968 34.5227 10.14 35.1467 9.39601C35.7947 8.62801 36.6467 8.01601 37.7027 7.56001C38.7827 7.08001 40.0907 6.84001 41.6267 6.84001C43.9787 6.84001 45.8387 7.42801 47.2067 8.60401C48.5747 9.78001 49.2587 11.484 49.2587 13.716V20.376C49.2587 21.096 49.5947 21.456 50.2667 21.456H51.7067V25.2H48.6827C47.7947 25.2 47.0627 24.984 46.4867 24.552C45.9107 24.12 45.6227 23.544 45.6227 22.824V22.788H44.9387C44.8427 23.076 44.6267 23.46 44.2907 23.94C43.9547 24.396 43.4267 24.804 42.7067 25.164C41.9867 25.524 41.0027 25.704 39.7547 25.704ZM40.5467 22.032C41.8187 22.032 42.8507 21.684 43.6427 20.988C44.4587 20.268 44.8667 19.32 44.8667 18.144V17.784H40.2947C39.4547 17.784 38.7947 17.964 38.3147 18.324C37.8347 18.684 37.5947 19.188 37.5947 19.836C37.5947 20.484 37.8467 21.012 38.3507 21.42C38.8547 21.828 39.5867 22.032 40.5467 22.032ZM57.7476 25.2L52.0596 7.34401H56.8836L61.0236 21.888H61.6716L65.8116 7.34401H70.6356L64.9476 25.2H57.7476ZM81.335 25.704C79.559 25.704 77.987 25.332 76.619 24.588C75.275 23.82 74.219 22.752 73.451 21.384C72.707 19.992 72.335 18.36 72.335 16.488V16.056C72.335 14.184 72.707 12.564 73.451 11.196C74.195 9.80401 75.239 8.73601 76.583 7.99201C77.927 7.22401 79.487 6.84001 81.263 6.84001C83.015 6.84001 84.539 7.23601 85.835 8.02801C87.131 8.79601 88.139 9.87601 88.859 11.268C89.579 12.636 89.939 14.232 89.939 16.056V17.604H76.943C76.991 18.828 77.447 19.824 78.311 20.592C79.175 21.36 80.231 21.744 81.479 21.744C82.751 21.744 83.687 21.468 84.287 20.916C84.887 20.364 85.343 19.752 85.655 19.08L89.363 21.024C89.027 21.648 88.535 22.332 87.887 23.076C87.263 23.796 86.423 24.42 85.367 24.948C84.311 25.452 82.967 25.704 81.335 25.704ZM76.979 14.22H85.331C85.235 13.188 84.815 12.36 84.071 11.736C83.351 11.112 82.403 10.8 81.227 10.8C80.003 10.8 79.031 11.112 78.311 11.736C77.591 12.36 77.147 13.188 76.979 14.22ZM93.9763 25.2V1.04904e-05H98.5123V25.2H93.9763Z" fill="#4691F2"/>
<path d="M110.955 25.704C108.627 25.704 106.719 25.2 105.231 24.192C103.743 23.184 102.843 21.744 102.531 19.872L106.707 18.792C106.875 19.632 107.151 20.292 107.535 20.772C107.943 21.252 108.435 21.6 109.011 21.816C109.611 22.008 110.259 22.104 110.955 22.104C112.011 22.104 112.791 21.924 113.295 21.564C113.799 21.18 114.051 20.712 114.051 20.16C114.051 19.608 113.811 19.188 113.331 18.9C112.851 18.588 112.083 18.336 111.027 18.144L110.019 17.964C108.771 17.724 107.631 17.4 106.599 16.992C105.567 16.56 104.739 15.972 104.115 15.228C103.491 14.484 103.179 13.524 103.179 12.348C103.179 10.572 103.827 9.21601 105.123 8.28001C106.419 7.32001 108.123 6.84001 110.235 6.84001C112.227 6.84001 113.883 7.28401 115.203 8.17201C116.523 9.06001 117.387 10.224 117.795 11.664L113.583 12.96C113.391 12.048 112.995 11.4 112.395 11.016C111.819 10.632 111.099 10.44 110.235 10.44C109.371 10.44 108.711 10.596 108.255 10.908C107.799 11.196 107.571 11.604 107.571 12.132C107.571 12.708 107.811 13.14 108.291 13.428C108.771 13.692 109.419 13.896 110.235 14.04L111.243 14.22C112.587 14.46 113.799 14.784 114.879 15.192C115.983 15.576 116.847 16.14 117.471 16.884C118.119 17.604 118.443 18.588 118.443 19.836C118.443 21.708 117.759 23.16 116.391 24.192C115.047 25.2 113.235 25.704 110.955 25.704ZM124.362 32.4V28.44H134.082C134.754 28.44 135.09 28.08 135.09 27.36V22.86H134.442C134.25 23.268 133.95 23.676 133.542 24.084C133.134 24.492 132.582 24.828 131.886 25.092C131.19 25.356 130.302 25.488 129.222 25.488C127.83 25.488 126.606 25.176 125.55 24.552C124.518 23.904 123.714 23.016 123.138 21.888C122.562 20.76 122.274 19.464 122.274 18V7.34401H126.81V17.64C126.81 18.984 127.134 19.992 127.782 20.664C128.454 21.336 129.402 21.672 130.626 21.672C132.018 21.672 133.098 21.216 133.866 20.304C134.634 19.368 135.018 18.072 135.018 16.416V7.34401H139.554V28.368C139.554 29.592 139.194 30.564 138.474 31.284C137.754 32.028 136.794 32.4 135.594 32.4H124.362Z" fill="#1A1313"/>
</svg>
